<svg width="14" height="14" viewBox="0 0 14 14" fill="none" xmlns="http://www.w3.org/2000/svg">
<path d="M9.94798 6.77683C9.89952 6.67963 9.82074 6.60082 9.72351 6.55236L5.72352 4.55235C5.47648 4.42892 5.17619 4.52909 5.05273 4.77612C5.01802 4.84558 4.99997 4.9222 5 4.99986V8.99988C4.99988 9.27603 5.22362 9.49998 5.49978 9.50012C5.57744 9.50015 5.65405 9.48211 5.72352 9.44739L9.72351 7.44738C9.97065 7.32422 10.0712 7.02398 9.94798 6.77683ZM6.00002 8.19088V5.80887L8.38203 6.99987L6.00002 8.19088Z" fill="#21ABDE"/>
<path d="M6.99998 0C3.134 0 0 3.134 0 6.99998C0 10.866 3.134 14 6.99998 14C10.866 14 14 10.866 14 6.99998C13.9959 3.13573 10.8643 0.00413086 6.99998 0ZM6.99998 13C3.68628 13 0.999989 10.3137 0.999989 6.99998C0.999989 3.68628 3.68628 0.999989 6.99998 0.999989C10.3137 0.999989 13 3.68628 13 6.99998C12.9964 10.3122 10.3122 12.9964 6.99998 13Z" fill="#21ABDE"/>
</svg>
