<svg width="12" height="13" viewBox="0 0 12 13" fill="none" xmlns="http://www.w3.org/2000/svg">
<path d="M5.64142 6.01158C6.55015 6.01158 7.33694 5.71537 7.97998 5.13095C8.62282 4.54663 8.94885 3.83167 8.94885 3.00569C8.94885 2.18 8.62293 1.46495 7.97988 0.880438C7.33683 0.296209 6.55005 0 5.64142 0C4.73258 0 3.9459 0.296209 3.30296 0.880533C2.66001 1.46486 2.33398 2.17991 2.33398 3.00569C2.33398 3.83167 2.66001 4.54672 3.30296 5.13105C3.94611 5.71528 4.7329 6.01158 5.64142 6.01158ZM3.87204 1.39764C4.36538 0.949277 4.9441 0.731334 5.64142 0.731334C6.33863 0.731334 6.91746 0.949277 7.4109 1.39764C7.90424 1.84609 8.14415 2.37214 8.14415 3.00569C8.14415 3.63943 7.90424 4.16539 7.4109 4.61385C6.91746 5.0623 6.33863 5.28025 5.64142 5.28025C4.94431 5.28025 4.36559 5.06221 3.87204 4.61385C3.3786 4.16549 3.13869 3.63943 3.13869 3.00569C3.13869 2.37214 3.3786 1.84609 3.87204 1.39764Z" fill="#21ABDE"/>
<path d="M11.4287 9.59644C11.4101 9.35326 11.3726 9.088 11.3174 8.80788C11.2617 8.52567 11.1899 8.25888 11.104 8.01504C11.0152 7.76301 10.8946 7.51412 10.7453 7.27561C10.5905 7.02806 10.4087 6.8125 10.2046 6.63511C9.99118 6.44954 9.7299 6.30034 9.42776 6.19152C9.12667 6.08326 8.79299 6.02842 8.43606 6.02842C8.29588 6.02842 8.16032 6.08069 7.89851 6.2356C7.73738 6.3311 7.54891 6.44155 7.33855 6.5637C7.15867 6.66787 6.91498 6.76546 6.61399 6.85382C6.32034 6.94018 6.02218 6.98398 5.72779 6.98398C5.43361 6.98398 5.13545 6.94018 4.84159 6.85382C4.54091 6.76556 4.29713 6.66796 4.11756 6.5638C3.90918 6.44278 3.72061 6.33234 3.55707 6.2355C3.29547 6.08059 3.15991 6.02832 3.01973 6.02832C2.6627 6.02832 2.32913 6.08326 2.02814 6.19161C1.72621 6.30025 1.46482 6.44945 1.2512 6.63521C1.04712 6.81269 0.86525 7.02816 0.710618 7.27561C0.561538 7.51412 0.440849 7.76292 0.352009 8.01514C0.266207 8.25898 0.194443 8.52567 0.138708 8.80788C0.0833926 9.08762 0.0459916 9.35298 0.0274483 9.59672C0.00921928 9.83504 0 10.0831 0 10.3337C0 10.9851 0.227863 11.5125 0.677198 11.9015C1.12098 12.2853 1.70808 12.4799 2.42226 12.4799H9.03416C9.74813 12.4799 10.3352 12.2853 10.7791 11.9015C11.2286 11.5128 11.4564 10.9852 11.4564 10.3336C11.4563 10.0821 11.447 9.83409 11.4287 9.59644ZM10.2243 11.3716C9.93105 11.6252 9.54174 11.7485 9.03406 11.7485H2.42226C1.91447 11.7485 1.52516 11.6252 1.23203 11.3717C0.944452 11.1229 0.804696 10.7833 0.804696 10.3337C0.804696 10.0998 0.813182 9.86894 0.830154 9.64728C0.846707 9.42982 0.880546 9.19093 0.930728 8.93709C0.980282 8.68639 1.04335 8.45112 1.11836 8.23813C1.19033 8.03389 1.2885 7.83166 1.41024 7.63685C1.52642 7.45119 1.6601 7.2919 1.80761 7.16355C1.94558 7.04348 2.11949 6.94522 2.32441 6.87153C2.51393 6.80336 2.72692 6.76603 2.95813 6.76042C2.98631 6.77403 3.0365 6.80002 3.11779 6.8482C3.28322 6.94618 3.47389 7.05796 3.68467 7.18031C3.92228 7.31798 4.2284 7.44233 4.59413 7.54964C4.96804 7.65951 5.34938 7.71531 5.7279 7.71531C6.10641 7.71531 6.48786 7.65951 6.86155 7.54973C7.2276 7.44224 7.53362 7.31798 7.77154 7.18012C7.98725 7.05482 8.17258 6.94627 8.338 6.8482C8.4193 6.80012 8.46948 6.77403 8.49766 6.76042C8.72898 6.76603 8.94197 6.80336 9.13159 6.87153C9.33641 6.94522 9.51031 7.04358 9.64829 7.16355C9.7958 7.2918 9.92948 7.45109 10.0457 7.63695C10.1675 7.83166 10.2658 8.03399 10.3376 8.23803C10.4128 8.45131 10.4759 8.68649 10.5254 8.93699C10.5755 9.19131 10.6094 9.43029 10.626 9.64738V9.64757C10.643 9.86837 10.6516 10.0992 10.6517 10.3337C10.6516 10.7834 10.5119 11.1229 10.2243 11.3716Z" fill="#21ABDE"/>
</svg>
